<svg width="28" height="28" fill="none" xmlns="http://www.w3.org/2000/svg"><path d="M17.593 2.017a7 7 0 0 0-4.627.525 6.39 6.39 0 0 0-1.83 1.424 8.254 8.254 0 0 0-1.797.136 4.593 4.593 0 0 0-4.119 4c.063 1.8.412 3.58 1.034 5.27a1.017 1.017 0 0 0-.932.204 17.848 17.848 0 0 0-1.83 1.695 19.143 19.143 0 0 0-1.407 1.56 1.152 1.152 0 0 0 .119 1.525l6.474 6.474a1.152 1.152 0 0 0 1.525.12c.526-.442 1.085-.933 1.695-1.492.558-.535 1.084-1.1 1.577-1.695a1.119 1.119 0 0 0 .17-1.051l3.118-2.763a.17.17 0 0 1 .085 0 5.729 5.729 0 0 0 4.101.153 6.322 6.322 0 0 0 3.119-2.763 6.899 6.899 0 0 0 1.068-4.627 7.253 7.253 0 0 0-.661-2.034 11.748 11.748 0 0 0-2.204-3.492 8.475 8.475 0 0 0-4.678-3.17v0Z" stroke="#F90" stroke-linecap="round" stroke-linejoin="round"/><path d="M5.22 8.593a4.458 4.458 0 0 1 1.695-3.559 4.83 4.83 0 0 1 2.424-.932c.576 0 3.101-.492 4.271 1.068a2.695 2.695 0 0 1 .44 2.237c-.39 1.017-1.694 1.322-3.559 1.78a3.39 3.39 0 0 1-2.593-.356" stroke="#F90" stroke-linecap="round" stroke-linejoin="round"/><path d="M24.44 8.542c.31.638.528 1.318.645 2.017a6.898 6.898 0 0 1-1.068 4.627 6.323 6.323 0 0 1-3.119 2.763c-3.39 1.22-6.491-1.525-6.78-1.78a5.711 5.711 0 0 1-1.949-2.847c-.813-3.034 1.848-6.78 5.814-7.83M13.305 20.152a1.153 1.153 0 0 1 .119 1.526c-.493.594-1.02 1.16-1.576 1.695-.56.56-1.12 1.05-1.695 1.491a1.153 1.153 0 0 1-1.526-.118l-6.424-6.424a1.152 1.152 0 0 1-.118-1.525c.44-.546.91-1.066 1.407-1.56a17.847 17.847 0 0 1 1.83-1.695 1.152 1.152 0 0 1 1.526.119l6.457 6.492Z" stroke="#F90" stroke-linecap="round" stroke-linejoin="round"/></svg>